<?xml version="1.0" encoding="utf-8"?>
<!-- Generator: Adobe Illustrator 23.0.3, SVG Export Plug-In . SVG Version: 6.00 Build 0)  -->
<svg version="1.1" id="Layer_1" xmlns="http://www.w3.org/2000/svg" xmlns:xlink="http://www.w3.org/1999/xlink" x="0px" y="0px"
	 viewBox="0 0 397 159.7" style="enable-background:new 0 0 397 159.7;" xml:space="preserve">
<g id="BACKGROUND">
</g>
<g id="TEXTURE">
</g>
<g id="OBJECTS">
	<g>
		<g>
			<g>
				<g>
					<path d="M39.2,121.4c10.3,12.2,30,20.4,52.5,20.4c22.6,0,42.2-8.2,52.5-20.4c-12.8,8-31.6,13.1-52.5,13.1
						C70.8,134.4,52,129.4,39.2,121.4"/>
					<path d="M39.2,107.7c10.3,12.2,30,20.4,52.5,20.4c22.6,0,42.2-8.2,52.5-20.4c-12.8,8-31.6,13.1-52.5,13.1
						C70.8,120.7,52,115.7,39.2,107.7"/>
					<path d="M202.6,61.5c6.7-5.3,9-7.7,20.6-19.6c26.2-27,61.7-27.1,91-20.2c8.9,2.1,22.1,8.7,27.2,11.6c-21.2-8.6-39-13.2-60.5-6
						C253.9,36.3,248.4,57.1,202.6,61.5"/>
				</g>
				<g>
					<path d="M23.2,75.7c0.2-0.7,0.6-1.4,0.9-2c0.4-0.7,0.8-1.3,1.4-1.8c0.5-0.6,1.2-1,2-1.3c0.8-0.3,1.7-0.5,2.8-0.5
						c1.1,0,2,0.1,2.7,0.4c0.8,0.2,1.4,0.7,1.9,1.2s0.9,1.1,1.3,1.7s0.7,1.3,1,2l9,22H34.9l-1.9-5H22l-1.8,4.8h-5.7L23.2,75.7z
						 M31.6,88.8l-4-11.5l-4.3,11.5H31.6z"/>
					<path d="M75.5,94.1c-1,1-2.1,1.8-3.4,2.4c-1.3,0.5-2.5,0.9-3.8,1.3c-1.3,0.3-2.6,0.5-3.9,0.5c-2.1,0-4.1-0.3-6-0.9
						s-3.7-1.5-5.4-2.8c-1.7-1.3-3-2.8-3.9-4.5s-1.3-3.7-1.3-5.9c0-2.2,0.4-4.2,1.3-5.9c0.8-1.7,2-3.2,3.6-4.4
						c1.6-1.2,3.3-2.2,5.1-2.8c1.8-0.7,3.6-1.1,5.5-1.2c1.5-0.1,3,0,4.4,0.2s2.8,0.7,4.1,1.2c1.3,0.5,2.5,1.3,3.5,2.2
						c1,0.9,1.8,2,2.4,3.2L73,78.8c-0.2-0.6-0.6-1.2-0.9-1.8c-0.4-0.6-0.8-1.1-1.3-1.7c-0.5-0.5-1.1-0.9-1.8-1.1
						c-0.7-0.2-1.5-0.4-2.5-0.4c-1.1,0-2.1,0.2-2.8,0.6c-0.8,0.3-1.4,0.9-1.9,1.6s-0.9,1.3-1.2,2.1c-0.3,0.7-0.5,1.5-0.7,2.3
						c-0.1,0.4-0.1,0.7-0.2,1c0,0.3-0.1,0.7-0.1,1s-0.1,0.6-0.1,0.9s0,0.6,0,0.9c0,1.9,0.1,3.6,0.5,4.9s0.9,2.4,1.7,3.1
						c0.8,0.7,1.6,1.3,2.5,1.6c0.9,0.3,1.8,0.4,2.7,0.3c0.7-0.1,1.4-0.3,2-0.5c0.7-0.3,1.3-0.6,2-1.1c0.6-0.5,1.2-1,1.7-1.7
						c0.5-0.6,0.9-1.3,1.2-2.1l4.3,1.9C77.4,92,76.5,93.2,75.5,94.1z"/>
					<path d="M108.9,94.1c-1,1-2.1,1.8-3.4,2.4c-1.3,0.5-2.5,1-3.8,1.3s-2.6,0.5-3.9,0.5c-2.1,0-4.1-0.3-6-0.9
						c-1.9-0.6-3.7-1.5-5.4-2.8c-1.7-1.3-3-2.8-3.9-4.5s-1.3-3.7-1.3-5.9c0-2.2,0.4-4.2,1.3-5.9c0.8-1.7,2-3.2,3.6-4.4
						c1.6-1.2,3.3-2.2,5.1-2.8c1.8-0.7,3.6-1.1,5.5-1.2c1.5-0.1,3,0,4.4,0.2s2.8,0.7,4.1,1.2s2.5,1.3,3.5,2.2c1,0.9,1.8,2,2.4,3.2
						l-4.7,2.1c-0.2-0.6-0.6-1.2-0.9-1.8c-0.4-0.6-0.8-1.1-1.3-1.7c-0.5-0.5-1.1-0.9-1.8-1.1s-1.5-0.4-2.5-0.4
						c-1.1,0-2.1,0.2-2.8,0.6c-0.8,0.3-1.4,0.9-1.9,1.6s-0.9,1.3-1.2,2.1c-0.3,0.7-0.5,1.5-0.7,2.3c-0.1,0.4-0.1,0.7-0.2,1
						c0,0.3-0.1,0.7-0.1,1s-0.1,0.6-0.1,0.9s0,0.6,0,0.9c0,1.9,0.1,3.5,0.5,4.9c0.4,1.3,0.9,2.4,1.7,3.1s1.6,1.3,2.5,1.6
						c0.9,0.3,1.8,0.4,2.7,0.3c0.7-0.1,1.4-0.3,2-0.5c0.7-0.3,1.3-0.6,2-1.1c0.6-0.5,1.2-1,1.7-1.7c0.5-0.6,0.9-1.3,1.2-2.1l4.3,1.9
						C110.8,92,109.9,93.2,108.9,94.1z"/>
					<path d="M119.9,96.9c-0.9-0.2-1.6-0.6-2.2-1.1c-0.5-0.5-0.9-1.1-1.2-1.9c-0.2-0.8-0.4-1.6-0.4-2.7V76.8c0-1,0.1-1.8,0.4-2.6
						c0.2-0.8,0.6-1.4,1.2-1.9c0.5-0.5,1.3-0.9,2.2-1.1c0.9-0.3,2-0.4,3.3-0.4l15.4-0.1v4h-8.2c-0.4,0-0.8,0.1-1.2,0.2
						s-0.7,0.2-1,0.3c-0.3,0.1-0.5,0.3-0.7,0.5s-0.3,0.5-0.4,0.9c0,0.2-0.1,0.3-0.1,0.5c0,0.1,0,0.3,0,0.5s0,0.3,0,0.5s0,0.3,0,0.4
						c0,0.2-0.1,0.4-0.1,0.6s0,0.4,0,0.6c0,0.1,0,0.2,0,0.3c0,0.1,0,0.2,0,0.3c0,0.1,0,0.2,0,0.3c0,0.1,0,0.2,0,0.3
						c0,0.1,0,0.2,0,0.4s0,0.2,0,0.4c0,0.1,0,0.2,0,0.3c0,0.1,0,0.2,0,0.3l10.4-0.1v4L127,86c0,0,0,0.1,0,0.2s0,0.1,0,0.2
						s0,0.2,0,0.2s0,0.1,0,0.2c0,0,0,0.1,0,0.2s0,0.1,0,0.2c0,0,0,0.1,0,0.2s0,0.1,0,0.2c0,0,0,0.1,0,0.2s0,0.1,0,0.2s0,0.2,0,0.2
						c0,0.1,0,0.1,0,0.2c0,0,0,0.1,0,0.2s0,0.1,0,0.2s0,0.2,0,0.2c0,0.1,0,0.1,0,0.2c0,0.3,0,0.6,0,0.9s0.1,0.6,0.1,0.9
						s0,0.6,0.1,0.8c0.1,0.2,0.2,0.5,0.3,0.7s0.2,0.3,0.3,0.4s0.3,0.2,0.4,0.3c0.1,0,0.2,0.1,0.3,0.1s0.2,0.1,0.3,0.1s0.2,0,0.3,0
						s0.2,0,0.3,0h0.1h0.1c0.1,0,0.2,0,0.2,0c0.1,0,0.1,0,0.2,0c0.1,0,0.2,0,0.3,0s0.2,0,0.3,0l8.7-0.1v4h-15.9
						C121.9,97.2,120.8,97.1,119.9,96.9z"/>
					<path d="M144.9,93.3h8.8h0.1h0.1c0.1,0,0.1,0,0.2,0c0,0,0.1,0,0.2,0c0.1,0,0.1,0,0.2,0c0,0,0.1,0,0.2,0c0.1,0,0.1,0,0.2,0
						c0.6,0,1.1-0.1,1.6-0.2s1-0.3,1.4-0.4c0.4-0.2,0.8-0.5,1-0.9s0.4-0.8,0.4-1.4c0-0.3-0.1-0.5-0.2-0.8c-0.1-0.2-0.2-0.5-0.4-0.7
						s-0.4-0.4-0.6-0.5c-0.2-0.1-0.6-0.3-0.9-0.4c-0.3-0.1-0.7-0.2-1-0.3c-0.3-0.1-0.7-0.2-1.1-0.3c-0.2,0-0.3-0.1-0.5-0.1
						s-0.4-0.1-0.5-0.2c-0.2,0-0.4-0.1-0.6-0.1c-0.2,0-0.3-0.1-0.6-0.1c0,0-0.1,0-0.1-0.1h-0.1h-0.1c-0.4-0.1-0.8-0.2-1.1-0.2
						c-0.3-0.1-0.7-0.2-1-0.2c-0.1,0-0.2-0.1-0.3-0.1s-0.2-0.1-0.3-0.1c-0.2-0.1-0.5-0.2-0.7-0.2c-0.2-0.1-0.4-0.1-0.6-0.2
						c-1-0.3-1.9-0.8-2.6-1.3c-0.7-0.5-1.3-1.2-1.7-1.9c-0.4-0.7-0.7-1.5-0.8-2.3s-0.1-1.5,0.1-2.3c0-0.1,0-0.2,0-0.3
						c0-0.1,0-0.2,0.1-0.3c0-0.1,0-0.2,0-0.2c0-0.1,0-0.2,0.1-0.2c0.4-1.1,0.9-2,1.6-2.8c0.7-0.8,1.6-1.4,2.8-1.8
						c1.1-0.4,2.2-0.8,3.3-1c1.2-0.2,2.4-0.4,3.6-0.4c0.1,0,0.2,0,0.2,0c0.1,0,0.1,0,0.2-0.1c0.1,0,0.2,0,0.2,0s0.1,0,0.2,0
						c0.1,0,0.2,0,0.2,0c0.1,0,0.1,0,0.2,0c0.1,0,0.2,0,0.2,0c0.1,0,0.1,0,0.2,0l8.6-0.1v4c-0.2,0-0.3,0.1-0.5,0.1
						c-0.1,0-0.3,0-0.5,0c-0.1,0-0.2,0-0.3,0s-0.2,0-0.3-0.1c-0.1,0-0.2,0-0.3,0s-0.2,0-0.3,0s-0.2,0-0.4,0c-0.1,0-0.2,0-0.4-0.1
						c-0.1,0-0.3,0-0.4,0c-0.1,0-0.3,0-0.4,0c-0.2,0-0.3,0-0.5,0s-0.3,0-0.4-0.1c-0.2,0-0.3,0-0.5,0c-0.1,0-0.3,0-0.5,0
						c-0.7,0-1.4,0-2.1,0.1c-0.7,0.1-1.3,0.2-1.9,0.3c-0.6,0.2-1.1,0.4-1.4,0.6c-0.3,0.3-0.5,0.6-0.6,1.1c0,0.4,0.1,0.7,0.3,1
						s0.6,0.6,1.1,0.8c0.5,0.2,1.1,0.5,1.7,0.6c0.6,0.2,1.2,0.4,1.8,0.5c0.1,0,0.2,0.1,0.4,0.1c0.1,0,0.2,0.1,0.4,0.1
						s0.5,0.1,0.7,0.2s0.5,0.1,0.7,0.2c0.4,0.1,0.7,0.2,1,0.2c0.3,0.1,0.6,0.1,0.8,0.2c1.1,0.3,2,0.8,2.7,1.3
						c0.8,0.6,1.4,1.2,1.9,1.9c0.5,0.8,0.8,1.6,1.1,2.4c0.2,0.8,0.3,1.6,0.2,2.4c0,1.1-0.4,2.1-0.9,3.1c-0.6,1-1.4,1.9-2.5,2.8
						s-2.4,1.6-4,2s-3.4,0.6-5.5,0.6h-11L144.9,93.3z"/>
					<path d="M173.6,93.3h8.8h0.1h0.1c0.1,0,0.1,0,0.2,0c0,0,0.1,0,0.2,0c0.1,0,0.1,0,0.2,0c0,0,0.1,0,0.2,0c0.1,0,0.1,0,0.2,0
						c0.6,0,1.1-0.1,1.6-0.2s1-0.3,1.4-0.4c0.4-0.2,0.8-0.5,1-0.9s0.4-0.8,0.4-1.4c0-0.3,0-0.5-0.2-0.8c-0.1-0.2-0.2-0.5-0.4-0.7
						s-0.4-0.4-0.6-0.5c-0.2-0.1-0.6-0.3-0.9-0.4c-0.3-0.1-0.7-0.2-1-0.3c-0.3-0.1-0.7-0.2-1.1-0.3c-0.2,0-0.3-0.1-0.5-0.1
						s-0.4-0.1-0.5-0.2c-0.2,0-0.4-0.1-0.6-0.1c-0.2,0-0.3-0.1-0.6-0.1c0,0-0.1,0-0.1-0.1h-0.1h-0.1c-0.4-0.1-0.8-0.2-1.1-0.2
						c-0.3-0.1-0.7-0.2-1-0.2c-0.1,0-0.2-0.1-0.3-0.1s-0.2-0.1-0.3-0.1c-0.2-0.1-0.5-0.2-0.7-0.2c-0.2-0.1-0.4-0.1-0.6-0.2
						c-1-0.3-1.9-0.8-2.6-1.3c-0.7-0.5-1.3-1.2-1.7-1.9c-0.4-0.7-0.7-1.5-0.8-2.3s-0.1-1.5,0.1-2.3c0-0.1,0-0.2,0-0.3
						c0-0.1,0-0.2,0.1-0.3c0-0.1,0-0.2,0-0.2c0-0.1,0.1-0.2,0.1-0.2c0.4-1.1,0.9-2,1.6-2.8c0.7-0.8,1.6-1.4,2.8-1.8
						c1.1-0.4,2.2-0.8,3.3-1c1.2-0.2,2.4-0.4,3.6-0.4c0.1,0,0.2,0,0.2,0c0.1,0,0.1,0,0.2-0.1c0.1,0,0.2,0,0.2,0c0.1,0,0.1,0,0.2,0
						c0.1,0,0.2,0,0.2,0c0.1,0,0.1,0,0.2,0c0.1,0,0.2,0,0.2,0c0.1,0,0.1,0,0.2,0l8.6-0.1v4c-0.2,0-0.3,0.1-0.5,0.1
						c-0.1,0-0.3,0-0.5,0c-0.1,0-0.2,0-0.3,0s-0.2,0-0.3-0.1c-0.1,0-0.2,0-0.3,0s-0.2,0-0.3,0s-0.2,0-0.4,0c-0.1,0-0.2,0-0.4-0.1
						c-0.1,0-0.3,0-0.4,0c-0.1,0-0.3,0-0.4,0c-0.2,0-0.3,0-0.5,0c-0.1,0-0.3,0-0.4-0.1c-0.2,0-0.3,0-0.5,0c-0.1,0-0.3,0-0.5,0
						c-0.7,0-1.4,0-2.1,0.1c-0.7,0.1-1.3,0.2-1.9,0.3c-0.6,0.2-1.1,0.4-1.4,0.6c-0.3,0.3-0.5,0.6-0.6,1.1c0,0.4,0.1,0.7,0.3,1
						s0.6,0.6,1.1,0.8c0.5,0.2,1.1,0.5,1.7,0.6c0.6,0.2,1.2,0.4,1.8,0.5c0.1,0,0.2,0.1,0.4,0.1c0.1,0,0.2,0.1,0.4,0.1
						s0.5,0.1,0.7,0.2s0.5,0.1,0.7,0.2c0.4,0.1,0.7,0.2,1,0.2c0.3,0.1,0.6,0.1,0.8,0.2c1.1,0.3,2,0.8,2.7,1.3
						c0.8,0.6,1.4,1.2,1.9,1.9c0.5,0.8,0.8,1.6,1.1,2.4c0.2,0.8,0.3,1.6,0.2,2.4c0,1.1-0.4,2.1-0.9,3.1c-0.6,1-1.4,1.9-2.5,2.8
						s-2.4,1.6-4,2s-3.4,0.6-5.5,0.6h-11L173.6,93.3z"/>
					<path d="M209.5,75.2h-8.9v-4.5h28.6v4.5h-8.9v22h-10.8L209.5,75.2z"/>
					<path d="M233.8,70.7h14.4c0.1,0,0.1,0,0.2,0h0.1h0.1h0.1h0.1h0.1h0.1c1.6,0,3.1,0.2,4.6,0.5s2.9,0.7,4.2,1.3
						c1.3,0.5,2.3,1.3,3,2.4c0.7,1,1,2.3,1,3.8c0,0.9-0.1,1.7-0.4,2.4c-0.3,0.7-0.7,1.3-1.3,1.9c-0.5,0.5-1.2,1-1.9,1.4
						c-0.8,0.4-1.6,0.7-2.7,0.9l9.7,11.9h-12.6l-7.5-12.5v-0.5c1.1-0.1,2.1-0.3,2.9-0.7c0.8-0.3,1.5-0.8,2-1.3
						c0.6-0.5,0.9-1.2,1.1-1.9c0.1-0.7,0.1-1.6-0.2-2.5c-0.2-0.7-0.5-1.3-0.9-1.8s-1-0.8-1.7-1s-1.4-0.3-2.1-0.4s-1.5-0.1-2.3-0.1
						v22.7h-10.2L233.8,70.7z"/>
					<path d="M276.4,75.6c0.2-0.7,0.6-1.4,0.9-2c0.4-0.7,0.8-1.3,1.4-1.8c0.5-0.6,1.2-1,2-1.3s1.7-0.5,2.8-0.5c1.1,0,2,0.1,2.7,0.4
						c0.8,0.2,1.4,0.7,1.9,1.2s0.9,1.1,1.3,1.7s0.7,1.3,1,2l9,22h-11.3l-1.8-4.8h-11l-1.8,4.8h-5.7L276.4,75.6z M284.8,88.7l-4-11.5
						l-4.3,11.5H284.8z"/>
					<path d="M343.9,96.8c-0.9-0.2-1.6-0.6-2.2-1.1c-0.5-0.5-0.9-1.1-1.2-1.9c-0.2-0.8-0.4-1.6-0.4-2.7V76.7c0-1,0.1-1.8,0.4-2.6
						c0.2-0.8,0.6-1.4,1.2-1.9c0.5-0.5,1.3-0.9,2.2-1.1c0.9-0.3,2-0.4,3.3-0.4l15.4-0.1v4h-8.2c-0.4,0-0.8,0.1-1.2,0.2
						c-0.4,0.1-0.7,0.2-1,0.3c-0.3,0.1-0.5,0.3-0.7,0.5s-0.3,0.5-0.4,0.9c0,0.2-0.1,0.3-0.1,0.5c0,0.1,0,0.3,0,0.5s0,0.3,0,0.5
						s0,0.3,0,0.4c0,0.2-0.1,0.4-0.1,0.6s0,0.4,0,0.6c0,0.1,0,0.2,0,0.3c0,0.1,0,0.2,0,0.3c0,0.1,0,0.2,0,0.3c0,0.1,0,0.2,0,0.3
						c0,0.1,0,0.2,0,0.4c0,0.1,0,0.2,0,0.4c0,0.1,0,0.2,0,0.3c0,0.1,0,0.2,0,0.3l10.4-0.1v4h-10.4c0,0,0,0.1,0,0.2s0,0.1,0,0.2
						s0,0.2,0,0.2c0,0.1,0,0.1,0,0.2c0,0,0,0.1,0,0.2s0,0.1,0,0.2c0,0,0,0.1,0,0.2s0,0.1,0,0.2c0,0,0,0.1,0,0.2s0,0.1,0,0.2
						s0,0.2,0,0.2c0,0.1,0,0.1,0,0.2c0,0,0,0.1,0,0.2s0,0.1,0,0.2s0,0.2,0,0.2c0,0.1,0,0.1,0,0.2c0,0.3,0,0.6,0,0.9s0.1,0.6,0.1,0.9
						s0,0.6,0.1,0.8c0.1,0.2,0.2,0.5,0.3,0.7c0.1,0.2,0.2,0.3,0.3,0.4c0.1,0.1,0.3,0.2,0.4,0.3c0.1,0,0.2,0.1,0.3,0.1
						c0.1,0,0.2,0.1,0.3,0.1c0.1,0,0.2,0,0.3,0c0.1,0,0.2,0,0.3,0h0.1h0.1c0.1,0,0.2,0,0.2,0c0.1,0,0.1,0,0.2,0s0.2,0,0.3,0
						c0.1,0,0.2,0,0.3,0l8.7-0.1v4h-15.9C345.9,97.2,344.8,97.1,343.9,96.8z"/>
					<path d="M303.5,70.7h11.2c1.4,0,2.8,0.1,4.2,0.2c1.4,0.1,2.7,0.3,3.9,0.5c1.3,0.2,2.5,0.5,3.7,1.1c1.2,0.5,2.4,1.2,3.5,1.9
						c0.8,0.6,1.6,1.3,2.3,2c0.7,0.7,1.3,1.5,1.8,2.4c0.5,0.8,0.9,1.7,1.1,2.6s0.4,1.8,0.4,2.8c0,1.9-0.4,3.7-1.2,5.3
						c-0.8,1.6-2,3-3.7,4.2c-1.6,1.2-3.4,2.1-5.4,2.7s-4.2,0.9-6.5,0.9h-15.2L303.5,70.7z M312.8,93.6c0.1,0,0.2,0,0.2,0
						c0.1,0,0.2,0,0.3,0c0.1,0,0.1,0,0.2,0s0.2,0,0.3,0c0.1,0,0.1,0,0.2,0s0.1,0,0.2,0s0.2,0,0.2,0c0.1,0,0.2,0,0.3,0
						c0.5,0,0.9,0,1.4,0s1-0.1,1.4-0.1c0.2,0,0.4-0.1,0.7-0.1c0.2,0,0.5-0.1,0.7-0.1c0.2-0.1,0.4-0.1,0.7-0.2
						c0.2-0.1,0.5-0.1,0.7-0.2c0.8-0.3,1.5-0.7,2.1-1.1s1.1-1,1.5-1.6s0.7-1.2,1-1.9c0.3-0.6,0.4-1.3,0.5-1.9c0-0.1,0-0.2,0-0.3
						c0-0.1,0-0.2,0.1-0.3c0-0.1,0-0.2,0.1-0.3c0-0.1,0-0.2,0-0.3c0-0.1,0-0.2,0-0.3c0-0.1,0-0.2,0-0.3c0-0.1,0-0.2,0-0.3
						c0-0.1,0-0.2,0-0.3c0-0.1,0-0.2,0-0.3c0-0.1,0-0.2,0-0.3c0-0.1,0-0.2,0-0.3c0-0.1,0-0.2,0-0.3c0-0.1,0-0.2,0-0.3
						c0-0.1,0-0.2-0.1-0.3c0-0.1,0-0.2-0.1-0.3c0-0.1,0-0.2,0-0.3c-0.1-0.7-0.3-1.3-0.5-2c-0.3-0.6-0.6-1.3-1-1.9s-0.9-1.2-1.5-1.6
						s-1.3-0.8-2.1-1.2c-0.2-0.1-0.4-0.2-0.7-0.2c-0.2-0.1-0.5-0.1-0.7-0.2s-0.5-0.1-0.7-0.1s-0.5-0.1-0.7-0.1
						c-0.5-0.1-1-0.1-1.4-0.1c-0.5,0-0.9,0-1.4,0c-0.1,0-0.2,0-0.3,0c-0.1,0-0.2,0-0.2,0c-0.1,0-0.2,0-0.2,0c-0.1,0-0.1,0-0.2,0
						s-0.2,0-0.3,0c-0.1,0-0.1,0-0.2,0s-0.2,0-0.3,0c-0.1,0-0.2,0-0.2,0l0,0V93.6z"/>
				</g>
			</g>
			<g>
				<g>
					<path d="M313.6,118.3c-0.5-0.4-1.6-0.7-3.1-1.2c-0.9-0.2-1.4-0.6-1.4-1.1c0-0.3,0.1-0.5,0.3-0.7c0.2-0.2,0.6-0.3,1-0.3
						c0.5,0,1,0.2,1.2,0.5c0.2,0.2,0.2,0.4,0.2,0.6c0,0.1,0,0.1,0,0.2h2.8c0-0.8-0.2-1.4-0.6-2c-0.8-1-1.9-1.5-3.5-1.5
						c-1.1,0-2.1,0.2-2.8,0.7c-1,0.6-1.5,1.5-1.5,2.6c0,0.8,0.3,1.5,0.9,2.1c0.5,0.5,1.4,1,2.6,1.3c0.8,0.2,1.4,0.4,1.6,0.5
						c0.4,0.2,0.6,0.5,0.6,0.9c0,0.3-0.1,0.5-0.4,0.7c-0.2,0.2-0.6,0.3-0.9,0.3c-0.8,0-1.4-0.4-1.5-1.3h-2.8c0,0.8,0.2,1.5,0.7,2
						c0.8,1,2,1.4,3.6,1.4c1.2,0,2.2-0.3,2.9-0.8c0.9-0.6,1.4-1.5,1.4-2.6C314.9,119.7,314.5,118.8,313.6,118.3z"/>
					<path d="M337.1,113.8c-0.9-0.6-2-0.9-3.1-0.9c-3.1,0-5.7,2.5-5.7,5.7c0,3.1,2.5,5.7,5.7,5.7c1.1,0,2.2-0.3,3.1-0.9v0.9h2.9V113
						h-2.9V113.8z M334,121.7c-1.7,0-3.1-1.4-3.1-3.1s1.4-3.1,3.1-3.1c1.6,0,2.9,1.2,3.1,2.8v0.8C336.9,120.5,335.6,121.7,334,121.7
						z"/>
					<path d="M322,112.9c-1.2,0-2.3,0.4-3.2,1v-1h-2.9v14.3h2.9v-3.9c0.9,0.6,2,1,3.2,1c3.1,0,5.7-2.5,5.7-5.7
						C327.6,115.4,325.1,112.9,322,112.9z M322,121.7c-1.7,0-3.1-1.4-3.1-3.1s1.4-3.1,3.1-3.1s3.1,1.4,3.1,3.1
						C325.1,120.3,323.7,121.7,322,121.7z"/>
					<rect x="264.2" y="109.8" width="3" height="14.4"/>
					<path d="M284.6,111h-2.9v2.2h-1.2v2.4h1.2v5.8v0.3v0.3c0,1.2,1,2.1,2.1,2.1c0,0,0,0,0.1,0l0,0h2v-2.4h-0.5h-0.1
						c-0.4,0-0.7-0.2-0.7-0.5v-0.1v-5.5h1.3v-2.4h-1.3V111z"/>
					<path d="M346.7,115.4c1,0,1.9,0.5,2.5,1.2l2.1-1.4c-1-1.5-2.7-2.4-4.6-2.4c-3.1,0-5.7,2.5-5.7,5.7c0,3.1,2.5,5.7,5.7,5.7
						c1.9,0,3.6-0.9,4.6-2.4l-2.1-1.4c-0.6,0.7-1.5,1.2-2.5,1.2c-1.7,0-3.1-1.4-3.1-3.1C343.6,116.8,345,115.4,346.7,115.4z"/>
					<path d="M275.1,112.9c-1.2,0-2.3,0.5-3,1.3v-1.3h-2.9v11.3h2.9v-7.1c0.1-1.1,1-1.9,2.1-1.9s2,0.8,2.1,1.9v-0.2l0,0
						c0,0.1,0,0.1,0,0.2v7.1h2.9v-7.1v-0.3C279.3,114.7,277.4,112.9,275.1,112.9z"/>
					<path d="M302.2,113.9V113h-2.9v11.3h2.9v-5.5l0,0c0-0.1,0-0.1,0-0.2l0,0c0-1.7,1.4-3.1,3.1-3.1c0.1,0,0.1,0,0.2,0V113
						c-0.1,0-0.2,0-0.2,0C304.2,112.9,303.1,113.3,302.2,113.9z"/>
					<path d="M292.6,112.9c-3.1,0-5.7,2.5-5.7,5.7c0,3.1,2.5,5.7,5.7,5.7c2.2,0,4.1-1.2,5-3.1l-2.3-1.1c-0.5,1-1.6,1.6-2.7,1.6
						c-1.4,0-2.7-1-3-2.3h6l0,0h2.6c0-0.3,0.1-0.6,0.1-0.8C298.3,115.4,295.7,112.9,292.6,112.9z M289.8,117.3
						c0.5-1.1,1.6-1.9,2.9-1.9s2.4,0.8,2.9,1.9H289.8z"/>
					<path d="M363,119.4c0-0.3,0.1-0.6,0.1-0.8c0-3.1-2.5-5.7-5.7-5.7c-3.1,0-5.7,2.5-5.7,5.7c0,3.1,2.5,5.7,5.7,5.7
						c2.2,0,4.1-1.2,5-3.1l-2.3-1.1c-0.5,1-1.6,1.6-2.7,1.6c-1.4,0-2.7-1-3-2.3h6l0,0C360.4,119.4,363,119.4,363,119.4z
						 M354.6,117.3c0.5-1.1,1.6-1.9,2.9-1.9s2.4,0.8,2.9,1.9H354.6z"/>
				</g>
				<g>
					<path d="M236.8,122.8v1.3H234v-14.5h2.8v5.7c0.4-0.5,0.8-0.8,1.2-1.1c0.6-0.3,1.3-0.5,2-0.5c1.5,0,2.8,0.6,3.8,1.7
						c0.9,1,1.3,2.2,1.3,3.8c0,1.7-0.5,3.1-1.6,4c-0.9,0.9-2,1.3-3.4,1.3c-0.8,0-1.5-0.2-2.2-0.5
						C237.6,123.7,237.2,123.4,236.8,122.8z M239.5,116c-0.8,0-1.5,0.4-2.1,1.1c-0.4,0.6-0.6,1.3-0.6,2.1c0,0.9,0.3,1.7,0.8,2.2
						s1.1,0.8,1.9,0.8s1.5-0.3,2-0.9s0.7-1.3,0.7-2.2c0-0.8-0.2-1.5-0.7-2.1C241,116.4,240.3,116,239.5,116z"/>
					<path d="M250.8,120l2.4-6h2.9l-5.7,14.7h-3l1.9-4.8l-3.5-9.9h2.9L250.8,120z"/>
				</g>
			</g>
		</g>
		<g>
			<path d="M370.1,76.8v-5.4h-2v-0.7h4.9v0.7h-2v5.4H370.1z"/>
			<path d="M373.7,76.8v-6.1h1.2l1.5,4.3c0.1,0.4,0.2,0.7,0.3,0.9c0.1-0.2,0.2-0.6,0.3-1l1.5-4.3h1.1v6.1h-0.8v-5.1l-1.8,5.1h-0.7
				l-1.8-5.2v5.2L373.7,76.8L373.7,76.8z"/>
		</g>
	</g>
</g>
<g id="DESIGNED_BY_FREEPIK">
</g>
</svg>
