<?xml version="1.0" encoding="utf-8"?>
<!-- Generator: Adobe Illustrator 23.0.4, SVG Export Plug-In . SVG Version: 6.00 Build 0)  -->
<svg version="1.1" id="レイヤー_1" xmlns="http://www.w3.org/2000/svg" xmlns:xlink="http://www.w3.org/1999/xlink" x="0px"
	 y="0px" viewBox="0 0 205.6 38.3" style="enable-background:new 0 0 205.6 38.3;" xml:space="preserve">
<style type="text/css">
	.st0{fill:#9FD9F6;}
	.st1{fill:#00AFEC;}
	.st2{fill:#10386B;}
</style>
<title>IS_LOGO</title>
<g>
	<polygon class="st0" points="35.8,11.9 27.5,22.7 27.5,7.1 	"/>
	<polygon class="st0" points="0,26.4 8.3,15.6 8.3,31.1 	"/>
	<polygon class="st1" points="20.6,0 25.8,12.5 12.3,4.8 	"/>
	<polygon class="st1" points="15.4,38.3 10.2,25.8 23.7,33.6 	"/>
	<polygon class="st2" points="2.7,7.2 16.1,9 2.7,16.8 	"/>
	<polygon class="st2" points="33.1,31 19.7,29.2 33.1,21.5 	"/>
	<g>
		<path d="M124,21.2c-0.8-0.6-2.6-1.2-5.1-2c-1.4-0.4-2.3-1-2.3-1.9c0-0.4,0.2-0.8,0.6-1.1c0.4-0.3,1-0.4,1.6-0.4
			c0.9,0,1.6,0.3,2,0.8c0.3,0.3,0.4,0.6,0.4,1c0,0.1,0,0.2,0,0.3h4.6c0-1.3-0.4-2.4-1-3.2c-1.2-1.6-3.2-2.4-5.8-2.4
			c-1.8,0-3.4,0.4-4.7,1.2c-1.6,1-2.4,2.5-2.4,4.4c0,1.4,0.5,2.5,1.5,3.5c0.9,0.9,2.3,1.6,4.2,2.1c1.3,0.4,2.2,0.7,2.6,0.9
			c0.6,0.4,0.9,0.9,0.9,1.4s-0.2,0.9-0.6,1.2c-0.3,0.3-1,0.4-1.5,0.4c-1.4,0-2.3-0.7-2.5-2.2h-4.6c0.1,1.3,0.3,2.5,1.1,3.4
			c1.3,1.6,3.3,2.4,6,2.4c2,0,3.6-0.4,4.8-1.3c1.5-1.1,2.3-2.5,2.3-4.4C126.1,23.5,125.4,22.1,124,21.2z"/>
		<path d="M162.7,13.8c-1.5-1-3.2-1.5-5.1-1.5c-5.2,0-9.3,4.2-9.3,9.3c0,5.2,4.2,9.3,9.3,9.3c1.9,0,3.7-0.6,5.1-1.5v1.5h4.8V12.2
			h-4.8V13.8z M157.6,26.8c-2.9,0-5.2-2.3-5.2-5.2s2.3-5.2,5.2-5.2c2.6,0,4.8,2,5.1,4.5v1.3C162.4,24.8,160.2,26.8,157.6,26.8z"/>
		<path d="M137.7,12.3c-1.9,0-3.7,0.6-5.2,1.6v-1.6h-4.8v23.6h4.8v-6.5c1.5,1,3.3,1.6,5.2,1.6c5.2,0,9.3-4.2,9.3-9.3
			C147.1,16.5,142.9,12.3,137.7,12.3z M137.7,26.8c-2.9,0-5.2-2.3-5.2-5.2s2.3-5.2,5.2-5.2s5.2,2.3,5.2,5.2S140.6,26.8,137.7,26.8z"
			/>
		<rect x="42.4" y="7.2" width="4.9" height="23.8"/>
		<path d="M76,9.2h-4.8v3.6h-2v4h2v9.6V27v0.5c0,1.9,1.6,3.5,3.5,3.5h0.1l0,0h3.4v-4h-0.8h-0.2c-0.6,0-1.1-0.4-1.1-0.9v-0.2v-9h2.2
			v-4H76C76,12.9,76,9.2,76,9.2z"/>
		<path d="M178.5,16.4c1.7,0,3.1,0.8,4.1,2l3.5-2.3c-1.7-2.4-4.5-4-7.6-4c-5.2,0-9.3,4.2-9.3,9.3c0,5.2,4.2,9.3,9.3,9.3
			c3.1,0,5.9-1.5,7.6-3.9l-3.5-2.2c-0.9,1.2-2.4,2-4.1,2c-2.9,0-5.2-2.3-5.2-5.2C173.3,18.8,175.7,16.4,178.5,16.4z"/>
		<path d="M60.5,12.3c-2,0-3.8,0.8-5,2.1v-2.1h-4.8V31h4.8V19.3c0.2-1.8,1.7-3.1,3.5-3.1s3.4,1.4,3.5,3.2v-0.3l0,0
			c0,0.1,0,0.2,0,0.4V31h4.8V19.4V19C67.3,15.3,64.3,12.3,60.5,12.3z"/>
		<path d="M105.1,13.9v-1.5h-4.8V31h4.8v-9.1l0,0c0-0.1,0-0.2,0-0.3l0,0c0-2.9,2.3-5.2,5.2-5.2c0.1,0,0.2,0,0.4,0v-4.1
			c-0.1,0-0.3,0-0.4,0C108.4,12.4,106.6,12.9,105.1,13.9z"/>
		<path d="M89.3,12.3c-5.2,0-9.3,4.2-9.3,9.3c0,5.2,4.2,9.3,9.3,9.3c3.6,0,6.7-2,8.3-5l-3.8-1.7c-0.9,1.6-2.6,2.7-4.5,2.7
			c-2.4,0-4.4-1.6-5-3.8h10l0,0h4.2c0.1-0.5,0.1-0.9,0.1-1.4C98.7,16.5,94.5,12.3,89.3,12.3z M84.6,19.6c0.8-1.8,2.6-3.1,4.7-3.1
			s3.9,1.3,4.7,3.1H84.6z"/>
		<path d="M205.5,23.1c0.1-0.5,0.1-0.9,0.1-1.4c0-5.2-4.2-9.3-9.3-9.3c-5.2,0-9.3,4.2-9.3,9.3c0,5.2,4.2,9.3,9.3,9.3
			c3.6,0,6.7-2,8.3-5l-3.8-1.7c-0.9,1.6-2.6,2.7-4.5,2.7c-2.4,0-4.4-1.6-5-3.8h10l0,0h4.2V23.1z M191.5,19.6
			c0.8-1.8,2.6-3.1,4.7-3.1c2.1,0,3.9,1.3,4.7,3.1H191.5z"/>
	</g>
</g>
</svg>
