<?xml version="1.0" encoding="utf-8"?>
<!-- Generator: Adobe Illustrator 19.0.1, SVG Export Plug-In . SVG Version: 6.00 Build 0)  -->
<svg version="1.1" id="Layer_1" xmlns="http://www.w3.org/2000/svg" xmlns:xlink="http://www.w3.org/1999/xlink" x="0px" y="0px"
	 viewBox="-46 117.5 190 50" style="enable-background:new -46 117.5 190 50;" xml:space="preserve">
<style type="text/css">
	.st0{fill:#1A89CA;}
	.st1{fill:#21438C;}
	.st2{fill:#298BCB;}
	.st3{font-family:'MicrosoftPhagsPa-Bold';}
	.st4{font-size:10.7169px;}
</style>
<g id="XMLID_26_">
	<g>
		<g id="XMLID_1_">
			<path id="XMLID_25_" class="st0" d="M32.9,154.9c-8.2,3.4-24-0.4-34.9-4.7l1.9-3.3l0.2-0.3c18,6.2,25.2,4.3,31.7,2.6
				c1.3-0.3,3-0.4,3.8,1C36.2,151.3,35.6,153.7,32.9,154.9z"/>
			<path id="XMLID_24_" class="st0" d="M0.2,146.8L0,147.1l-1.9,3.3l-8,14.1h-20.9c0,0,3.5-5.2,12.2-10.8c4-2.6,8.4-4.3,12-5.4
				c-8.9-4.3-18.1-12.4-23.7-21.1c-1.5-2.2-2.7-4.5-3.6-6.8c-0.2-0.4-0.4-1.3,0.4-1.8c1.1-0.6,1.7,0.7,2,1.3
				c1.3,2.6,2.8,5.1,4.4,7.3h17.2l9.3,16.3c0,0-8.2-1.3-15.7-5.2c3.9,2.9,7.9,5.1,11.8,6.6c1.6,0.6,3.1,1.2,4.6,1.7
				C0.2,146.7,0.2,146.8,0.2,146.8z"/>
			<path id="XMLID_23_" class="st0" d="M-21.1,141.4c-2.6,0-4.7,2.1-4.7,4.7c0,2.3,1.6,4.1,3.7,4.6c-6.2,5.2-9.7,12.5-9.8,12.6
				l-10-17.4h0.1h-0.1l10.6-18.4C-31.3,127.5-27.9,135.5-21.1,141.4z"/>
		</g>
	</g>
	<g>
		<g id="XMLID_3_">
			<path id="XMLID_22_" class="st1" d="M26.5,128.9l-4,13c0,0.1-0.1,0.2-0.1,0.3l0,0c-0.3,0.6-1,1-1.7,1h-1.4
				c-0.9,0-1.7-0.6-1.9-1.4l-1.7-6.2l-2.2,7.1c-0.1,0.3-0.4,0.5-0.7,0.5H11c-0.5,0-0.8-0.5-0.7-0.9l3.9-12.8l0.1-0.4c0,0,0,0,0-0.1
				l0,0v-0.1c0.3-0.6,1-1.1,1.8-1.1h1.4c0.9,0,1.7,0.6,1.9,1.4l1.7,6.2l2.2-7.1c0.1-0.3,0.4-0.5,0.7-0.5h1.8
				C26.3,127.9,26.6,128.4,26.5,128.9z"/>
		</g>
	</g>
	<path id="XMLID_21_" class="st1" d="M41.5,129.1l-0.6,1.9c-0.1,0.3-0.4,0.5-0.7,0.5H37l-3.1,11.2c-0.1,0.3-0.4,0.5-0.7,0.5h-3.9
		c-0.5,0-0.8-0.5-0.7-0.9l3-10.8h-3.1c-0.5,0-0.8-0.4-0.7-0.9l0.7-2.1c0.1-0.3,0.4-0.5,0.7-0.5h11.6
		C41.3,127.9,41.8,128.3,41.5,129.1z"/>
	<g>
		<path id="XMLID_20_" class="st1" d="M48.1,132.2v0.2C48,132.4,48,132.3,48.1,132.2z"/>
		<path id="XMLID_19_" class="st1" d="M53.9,128.9l-0.2,1.4c-0.1,0.4-0.4,0.7-0.8,0.7h-3.5c-0.9,0.2-1.3,1-1.4,1.3l0,0
			c0,0.1,0,0.1,0,0.2l0,0l0,0l0,0l-0.5,1.7h3.6c0.5,0,0.9,0.5,0.8,1l-0.2,1.4c-0.1,0.4-0.4,0.7-0.8,0.7h-4.2l-0.9,3.1H50
			c0.5,0,0.9,0.5,0.8,1l-0.1,1.1c-0.1,0.4-0.4,0.7-0.8,0.7H44c-0.2,0-0.3,0.1-0.5,0.1h-1.3c-1.3,0-2.3-1.3-1.9-2.5l3.1-11.3
			c0.2-0.9,1-1.5,1.9-1.5h7.8C53.6,127.9,54,128.4,53.9,128.9z"/>
	</g>
	<g>
		<path id="XMLID_18_" class="st1" d="M134,132.2v0.2C133.9,132.4,133.9,132.3,134,132.2z"/>
		<path id="XMLID_17_" class="st1" d="M139.8,128.9l-0.2,1.4c-0.1,0.4-0.4,0.7-0.8,0.7h-3.5c-0.9,0.2-1.3,1-1.4,1.3l0,0
			c0,0.1,0,0.1,0,0.2l0,0l0,0l0,0l-0.5,1.7h3.6c0.5,0,0.9,0.5,0.8,1l-0.2,1.4c-0.1,0.4-0.4,0.7-0.8,0.7h-4.2l-0.9,3.1h4.2
			c0.5,0,0.9,0.5,0.8,1l-0.2,1.4c-0.1,0.4-0.4,0.7-0.8,0.7h-5.9c-0.2,0-0.3,0.1-0.5,0.1H128c-1.3,0-2.3-1.3-1.9-2.5l3.1-11.3
			c0.2-0.9,1-1.5,1.9-1.5h7.8C139.5,127.9,139.9,128.4,139.8,128.9z"/>
	</g>
	<g>
		<g id="XMLID_2_">
			<path class="st1" d="M68.7,132c-0.2-4-4.5-4-5.7-4c-0.5,0-1.1,0-1.6,0l0,0c-0.6,0-1.1,0-1.1,0h-3c-0.3,0-0.6,0.2-0.7,0.5
				l-3.8,13.8c-0.1,0.5,0.2,0.9,0.7,0.9h3.9c0.3,0,0.6-0.2,0.7-0.5l1.6-5.7l1.2,5.5c0.1,0.4,0.5,0.7,0.9,0.7h4.6
				c0.5,0,0.8-0.5,0.7-1l-2.3-5.6C66.8,136.1,68.8,134.8,68.7,132z M63.2,133c-0.4,1.5-1.8,2.1-2.9,2.4l1.3-4.6
				C62.6,130.8,63.5,131.6,63.2,133z"/>
		</g>
	</g>
	<g>
		<g id="XMLID_4_">
			<path id="XMLID_14_" class="st1" d="M82.2,128.7l-0.4,1.9c-0.1,0.2-0.2,0.4-0.5,0.4h-2.9c-0.9,0-1.6,0.2-1.9,0.5c0,0,0,0-0.1,0.1
				l0,0l0,0c-0.1,0.1-0.2,0.3-0.2,0.4c0,0.3,0.1,0.5,0.4,0.6l0,0c0.4,0.2,3,0.9,3.9,1.9c0.9,0.9,0.8,1.8,0.8,2.4l0,0l0,0
				c0,0,0,1-0.4,1.8c-0.4,0.9-1.9,4.2-6,4.5h-5.8c-0.4,0-0.6-0.3-0.6-0.7c0.1-0.4,0.2-1,0.3-1.7l0,0c0.1-0.4,0.4-0.6,0.8-0.6h4.9
				c0.3,0,0.7-0.2,0.9-0.5c0.3-0.3,0.3-0.7,0.2-1c0-0.2-0.1-0.3-0.3-0.4c-0.1-0.1-0.2-0.1-0.3-0.1c-1.1-0.3-2.6-0.7-3.7-1.4
				c-1.6-1.1-1.2-3-1.2-3.1l0,0c0-0.1,0-0.2,0.1-0.3c1-4.5,5.5-5.3,6.6-5.3c0.6,0,3.3,0,4.6,0C82,128,82.3,128.4,82.2,128.7z"/>
		</g>
	</g>
	<path id="XMLID_13_" class="st1" d="M6.2,143.2H2.8c-0.6,0-1-0.6-0.8-1.1l4.1-13.3c0.2-0.5,0.6-0.8,1.1-0.8h3.4
		c0.6,0,1,0.6,0.8,1.1l-4.1,13.3C7.2,142.9,6.7,143.2,6.2,143.2z"/>
	<path class="st1" d="M111,142.3l-0.2-3.6v-0.3l-0.5-8.4c-0.1-0.9-0.4-1.5-0.8-1.8c-0.6-0.5-1.5-0.7-2.4-0.6l0,0
		c-0.4,0-0.7,0.1-1,0.3l0,0H106l0,0l0,0h-0.1l0,0c-0.2,0.1-0.4,0.2-0.5,0.4l0,0c-1.1,0.9-2,2.5-2,2.7l0,0l-6.3,11
		c-0.3,0.5,0.1,1.2,0.7,1.2h1.5c0.3,0,0.5-0.1,0.7-0.4l1.3-2.1h4.2l0.1,1.2v0.5c0,0.4,0.4,0.8,0.8,0.8h4.1
		C110.6,143.2,111,142.8,111,142.3z M102.7,137.8l2.1-3.7l0.2,3.7H102.7z"/>
	<g>
		<g id="XMLID_5_">
			<path class="st1" d="M91.2,127.7h-1.6c-0.8,0-1.3,0-1.3,0h-2.1c-0.5,0-1,0.3-1.1,0.8l-5.2,19.4c-0.2,0.6,0.2,1.1,0.8,1.1h3.4
				c0.5,0,1-0.3,1.2-0.9l1.4-5.1c1.8,0.1,4,0.1,5.4-0.4c3-1,6.2-4.2,6.4-9.1C98.7,128.6,93.7,127.7,91.2,127.7z M92.5,133.8
				c-0.4,3.2-1.8,5.4-3.3,5.9c-0.5,0.2-1.2,0.3-1.8,0.3l2.5-9.4C91.8,130.8,92.8,131.3,92.5,133.8z"/>
		</g>
	</g>
	<g>
		<g id="XMLID_6_">
			<path id="XMLID_8_" class="st1" d="M125.8,132.2l-1.9,0.7c-0.3,0.1-0.7,0.1-0.7-0.2l0,0c0-0.1,0-0.2,0-0.3
				c-0.1-1-0.5-1.2-1.2-1.3c-1.5-0.4-3,0.9-4,3.9c-0.8,2.5-1.2,4.2,0.3,4.8c1,0.4,2.1-0.2,3-1.2l0,0l0,0c0.1-0.1,0.1-0.1,0.2-0.2
				l0,0c0.2-0.2,0.4-0.5,0.5-0.7c0.2-0.2,0.5-0.2,0.7-0.1l1.2,1c0.4,0.2,0.5,0.7,0.2,1l-1,1.1l0,0c-1.8,1.6-4.1,2.7-6.5,2.5
				c-3.7-0.3-5.8-3.8-4.4-8c1.7-4.9,5.9-7.4,9.5-7.2c2,0.1,3.6,1.2,4.2,3.4l0,0l0,0l0.1,0.2C126.2,131.9,126.1,132.1,125.8,132.2z"
				/>
		</g>
	</g>
	<text id="XMLID_7_" transform="matrix(0.9248 0 0 1 -1.0645 164.168)" class="st2 st3 st4">PT. Interspace Indonesia</text>
</g>
</svg>
