<?xml version="1.0" encoding="utf-8"?>
<!-- Generator: Adobe Illustrator 19.0.1, SVG Export Plug-In . SVG Version: 6.00 Build 0)  -->
<svg version="1.1" id="Layer_1" xmlns="http://www.w3.org/2000/svg" xmlns:xlink="http://www.w3.org/1999/xlink" x="0px" y="0px"
	 viewBox="38 33 360 217.5" style="enable-background:new 38 33 360 217.5;" xml:space="preserve">
<style type="text/css">
	.st0{fill:#1A89CA;}
	.st1{fill:#21438C;}
</style>
<g id="XMLID_26_">
	<g id="XMLID_19_">
		<g id="XMLID_14_">
			<path class="st0" d="M378.5,201.9c-36.8,15.1-107.5-2-156-21.2l0,0.1l-36.1,63H93c0,0,15.7-23.1,54.6-48.1
				c17.8-11.4,37.7-19.2,53.7-24.1c-39.9-19.1-80.8-55.6-105.9-94.3c-6.5-10-11.9-20.2-16-30.3c-0.7-1.7-1.7-6,1.7-7.9
				c4.8-2.6,7.6,3.3,8.8,5.7c5.9,11.7,12.6,22.7,19.6,32.5h76.9l41.7,73c0,0-36.6-5.7-70.3-23.2c17.4,13.1,35.4,22.7,52.8,29.5
				c7.2,2.8,14,5.3,20.6,7.6c80.8,28.4,113.6,20,142.6,12.5c5.8-1.5,13.3-1.9,17,4.5C393.4,185.9,390.9,196.8,378.5,201.9z"/>
			<path id="XMLID_23_" class="st0" d="M136.3,140.3c-11.7,0-21.1,9.5-21.1,21.2c0,10.1,7.1,18.6,16.6,20.6
				c-27.5,23.2-43.6,56.1-43.7,56.4l-44.6-77.9H44h-0.5l47.2-82.5C90.8,78.4,106,113.8,136.3,140.3z"/>
		</g>
	</g>
	<g id="XMLID_15_">
		<path id="XMLID_20_" class="st1" d="M445.5,99.4l-0.2,0.7C445.4,100,445.4,99.7,445.5,99.4z"/>
	</g>
</g>
</svg>
