<?xml version="1.0" encoding="utf-8"?>
<!-- Generator: Adobe Illustrator 19.0.1, SVG Export Plug-In . SVG Version: 6.00 Build 0)  -->
<svg version="1.1" id="Layer_1" xmlns="http://www.w3.org/2000/svg" xmlns:xlink="http://www.w3.org/1999/xlink" x="0px" y="0px"
	 viewBox="-85 85.2 28.5 31.8" style="enable-background:new -85 85.2 28.5 31.8;" xml:space="preserve">
<style type="text/css">
	.st0{fill:#FFFFFF;}
	.st1{fill:none;stroke:#30378B;stroke-width:2;stroke-linecap:round;stroke-linejoin:round;stroke-miterlimit:10;}
</style>
<g>
	<path class="st0" d="M-58.1,106.2c0.2-0.2-0.3-3.7-0.9-5c-0.6-1.3-1.3-1.8-1.8-1.9c-0.5-0.1-0.8-0.6-1.2-0.9c-0.5-0.3-0.7-0.7-1-1
		c-0.3-0.4-1.3,0.2-1.6,0.1c-0.3,0-1.3-0.7-1.9-1.3c-0.6-0.7-2.1-0.2-2.1-0.2v-5.6c0,0-0.1-3.6-2.1-3.6s-2.7,2.3-2.7,2.3
		s0.3,3.7,0.3,7.7c0,4-0.4,3.5-2.9,1.7c-2.5-1.8-3,1.5-3,1.5s1.6,3.4,2.7,5.8s2.6,7.6,2.6,7.6h14.2C-58.7,112-58.4,106.4-58.1,106.2
		z"/>
	<g>
		<path class="st1" d="M-73.7,113.3c0,0,6.8,4.4,13.9,0.8c0.8-1.7,1-3.7,1.2-5.6c0.2-1.9,0.6-3.8,0.4-5.7c-0.1-1-0.3-2-1-2.7
			c-0.3-0.4-1.6-1-2.1-0.6c-0.3-1.5-2.2-3.1-3.5-1.6c-0.2-1.6-2.7-2.7-3.8-1.4c0-1.6,0.1-3.3,0.1-5c0.1-1.3,0.3-3.3-1-4.3
			c-1.1-0.9-2.8-0.6-3.4,0.7c-0.4,0.7-0.2,2.3-0.2,3.6c0,0.5,0,1,0,1.5v8.3c-1-1.5-2.2-2.9-4.2-2.9"/>
		<path class="st1" d="M-77.2,98.4c-3.5,0-0.6,4,0.1,5.4c1,2.1,1.8,4.2,2.5,6.4c0.2,0.6,0.4,2.4,0.6,2.8"/>
	</g>
</g>
</svg>
